<svg width="27" height="21" viewBox="0 0 27 21" fill="none" xmlns="http://www.w3.org/2000/svg">
<path d="M18.9686 9.76777C18.6912 7.00296 16.5306 4.99704 13.8266 4.99704C12.0251 4.99704 10.3757 5.87506 9.44753 7.28229C8.5278 5.85686 6.94595 4.9967 5.17336 4.9967C2.4697 4.9967 0.308683 7.00263 0.031704 9.76744C0.00977952 9.88956 -0.0801108 10.5323 0.193214 11.5804C0.587124 13.0922 1.49699 14.4674 2.82378 15.5562L9.44315 20.9968L16.1761 15.5565C17.5029 14.4674 18.4128 13.0926 18.8067 11.5804C19.08 10.5326 18.9902 9.8899 18.9686 9.76777ZM18.0953 11.4288C17.7357 12.8096 16.9022 14.0676 15.6872 15.0644L9.44753 20.1065L3.31489 15.0657C2.09772 14.0669 1.26459 12.8093 0.904663 11.4285C0.645954 10.4366 0.752288 9.87633 0.752653 9.87268L0.758135 9.83926C0.99565 7.41699 2.85229 5.65862 5.17336 5.65862C6.88602 5.65862 8.39369 6.61177 9.10916 8.14575L9.4457 8.86823L9.78224 8.14575C10.4864 6.63527 12.0737 5.65895 13.8269 5.65895C16.1476 5.65895 18.0047 7.41732 18.2469 9.87103C18.2476 9.87633 18.354 10.437 18.0953 11.4288Z" fill="#1B1A17"/>
<path d="M27 6.49943C27 10.0893 24.0899 12.9995 20.5 12.9995C16.9101 12.9995 14 10.0893 14 6.49943C14 2.90956 16.9101 -0.000610352 20.5 -0.000610352C24.0899 -0.000610352 27 2.90956 27 6.49943Z" fill="#E6C8B4"/>
<mask id="path-2-inside-1_1_76" fill="white">
<path d="M21.0977 3.28052V8.99927H20.375V4.18286L18.918 4.71411V4.06177L20.9844 3.28052H21.0977Z"/>
</mask>
<path d="M21.0977 3.28052V8.99927H20.375V4.18286L18.918 4.71411V4.06177L20.9844 3.28052H21.0977Z" fill="#1B1A17"/>
<path d="M21.0977 3.28052H22.0977V2.28052H21.0977V3.28052ZM21.0977 8.99927V9.99927H22.0977V8.99927H21.0977ZM20.375 8.99927H19.375V9.99927H20.375V8.99927ZM20.375 4.18286H21.375V2.75385L20.0324 3.24336L20.375 4.18286ZM18.918 4.71411H17.918V6.14312L19.2605 5.65361L18.918 4.71411ZM18.918 4.06177L18.5643 3.12639L17.918 3.37076V4.06177H18.918ZM20.9844 3.28052V2.28052H20.8017L20.6307 2.34514L20.9844 3.28052ZM20.0977 3.28052V8.99927H22.0977V3.28052H20.0977ZM21.0977 7.99927H20.375V9.99927H21.0977V7.99927ZM21.375 8.99927V4.18286H19.375V8.99927H21.375ZM20.0324 3.24336L18.5754 3.77461L19.2605 5.65361L20.7176 5.12236L20.0324 3.24336ZM19.918 4.71411V4.06177H17.918V4.71411H19.918ZM19.2716 4.99715L21.338 4.2159L20.6307 2.34514L18.5643 3.12639L19.2716 4.99715ZM20.9844 4.28052H21.0977V2.28052H20.9844V4.28052Z" fill="#1B1A17" mask="url(#path-2-inside-1_1_76)"/>
</svg>
